<svg xmlns="http://www.w3.org/2000/svg" viewBox="0 0 45 47" fill="none">
  <path d="M 20 15.5 C 20 15.83, 19.83 16, 19.5 16 C 19.17 16, 19 16.17, 19 16.5 C 19 16.83, 18.83 17, 18.5 17 C 18.08 17, 18 17.17, 18 18 C 18 18.83, 17.92 19, 17.5 19 C 17.17 19, 17 19.17, 17 19.5 C 17 19.94, 16.83 20, 15.5 20 L 14 20 14 22.5 C 14 24.83, 14.03 25, 14.5 25 C 14.83 25, 15 25.17, 15 25.5 C 15 25.83, 15.17 26, 15.5 26 C 15.83 26, 16 26.17, 16 26.5 C 16 26.83, 16.17 27, 16.5 27 C 16.83 27, 17 27.17, 17 27.5 C 17 27.83, 17.17 28, 17.5 28 C 17.83 28, 18 28.17, 18 28.5 C 18 28.83, 18.17 29, 18.5 29 C 18.83 29, 19 29.17, 19 29.5 C 19 29.83, 19.17 30, 19.5 30 C 19.83 30, 20 30.17, 20 30.5 C 20 30.83, 20.17 31, 20.5 31 C 20.83 31, 21 31.17, 21 31.5 C 21 31.83, 21.17 32, 21.5 32 C 21.83 32, 22 32.17, 22 32.5 C 22 32.83, 22.17 33, 22.5 33 C 22.83 33, 23 33.17, 23 33.5 C 23 33.83, 23.17 34, 23.5 34 C 23.83 34, 24 34.17, 24 34.5 C 24 34.83, 24.17 35, 24.5 35 C 24.83 35, 25 35.17, 25 35.5 C 25 35.83, 25.17 36, 25.5 36 C 25.83 36, 26 36.17, 26 36.5 C 26 36.83, 26.17 37, 26.5 37 C 26.83 37, 27 37.17, 27 37.5 C 27 37.83, 27.17 38, 27.5 38 C 27.83 38, 28 38.17, 28 38.5 C 28 38.97, 28.17 39, 30.5 39 L 33 39 33 37.5 C 33 36.17, 32.94 36, 32.5 36 C 32.02 36, 32 35.83, 32 31 C 32 26.17, 31.98 26, 31.5 26 C 31.03 26, 31 25.83, 31 23 L 31 20 29.5 20 L 28 20 28 19 C 28 18.17, 27.92 18, 27.5 18 C 27.08 18, 27 17.83, 27 17 C 27 16.17, 26.92 16, 26.5 16 C 26.17 16, 26 15.83, 26 15.5 C 26 15.03, 25.83 15, 23 15 C 20.17 15, 20 15.03, 20 15.5 M 21 16.5 C 21 16.83, 20.83 17, 20.5 17 C 20.17 17, 20 17.17, 20 17.5 C 20 17.83, 19.83 18, 19.5 18 C 19.08 18, 19 18.17, 19 19 L 19 20 23 20 C 26.83 20, 27 19.98, 27 19.5 C 27 19.17, 26.83 19, 26.5 19 C 26.08 19, 26 18.83, 26 18 C 26 17.17, 25.92 17, 25.5 17 C 25.17 17, 25 16.83, 25 16.5 C 25 16.04, 24.83 16, 23 16 C 21.17 16, 21 16.04, 21 16.5 M 14 28.5 C 14 29.83, 14.06 30, 14.5 30 C 14.83 30, 15 30.17, 15 30.5 C 15 30.83, 15.17 31, 15.5 31 C 15.83 31, 16 31.17, 16 31.5 C 16 31.83, 16.17 32, 16.5 32 C 16.83 32, 17 32.17, 17 32.5 C 17 32.83, 17.17 33, 17.5 33 C 17.83 33, 18 33.17, 18 33.5 C 18 33.83, 18.17 34, 18.5 34 C 18.83 34, 19 34.17, 19 34.5 C 19 34.83, 19.17 35, 19.5 35 C 19.83 35, 20 35.17, 20 35.5 C 20 35.83, 20.17 36, 20.5 36 C 20.83 36, 21 36.17, 21 36.5 C 21 36.83, 21.17 37, 21.5 37 C 21.83 37, 22 37.17, 22 37.5 C 22 37.83, 22.17 38, 22.5 38 C 22.83 38, 23 38.17, 23 38.5 C 23 38.94, 23.17 39, 24.5 39 C 25.83 39, 26 38.94, 26 38.5 C 26 38.17, 25.83 38, 25.5 38 C 25.17 38, 25 37.83, 25 37.5 C 25 37.17, 24.83 37, 24.5 37 C 24.17 37, 24 36.83, 24 36.5 C 24 36.17, 23.83 36, 23.5 36 C 23.17 36, 23 35.83, 23 35.5 C 23 35.17, 22.83 35, 22.5 35 C 22.17 35, 22 34.83, 22 34.5 C 22 34.17, 21.83 34, 21.5 34 C 21.17 34, 21 33.83, 21 33.5 C 21 33.17, 20.83 33, 20.5 33 C 20.17 33, 20 32.83, 20 32.5 C 20 32.17, 19.83 32, 19.5 32 C 19.17 32, 19 31.83, 19 31.5 C 19 31.17, 18.83 31, 18.5 31 C 18.17 31, 18 30.83, 18 30.5 C 18 30.17, 17.83 30, 17.5 30 C 17.17 30, 17 29.83, 17 29.5 C 17 29.17, 16.83 29, 16.5 29 C 16.17 29, 16 28.83, 16 28.5 C 16 28.17, 15.83 28, 15.5 28 C 15.17 28, 15 27.83, 15 27.5 C 15 27.17, 14.83 27, 14.5 27 C 14.06 27, 14 27.17, 14 28.5 M 13 32 C 13 32.83, 13.08 33, 13.5 33 C 13.83 33, 14 33.17, 14 33.5 C 14 33.83, 14.17 34, 14.5 34 C 14.83 34, 15 34.17, 15 34.5 C 15 34.83, 15.17 35, 15.5 35 C 15.83 35, 16 35.17, 16 35.5 C 16 35.83, 16.17 36, 16.5 36 C 16.83 36, 17 36.17, 17 36.5 C 17 36.83, 17.17 37, 17.5 37 C 17.83 37, 18 37.17, 18 37.5 C 18 37.83, 18.17 38, 18.5 38 C 18.83 38, 19 38.17, 19 38.5 C 19 38.92, 19.17 39, 20 39 C 20.83 39, 21 38.92, 21 38.5 C 21 38.17, 20.83 38, 20.5 38 C 20.17 38, 20 37.83, 20 37.5 C 20 37.17, 19.83 37, 19.5 37 C 19.17 37, 19 36.83, 19 36.5 C 19 36.17, 18.83 36, 18.5 36 C 18.17 36, 18 35.83, 18 35.5 C 18 35.17, 17.83 35, 17.5 35 C 17.17 35, 17 34.83, 17 34.5 C 17 34.17, 16.83 34, 16.5 34 C 16.17 34, 16 33.83, 16 33.5 C 16 33.17, 15.83 33, 15.5 33 C 15.17 33, 15 32.83, 15 32.5 C 15 32.17, 14.83 32, 14.5 32 C 14.17 32, 14 31.83, 14 31.5 C 14 31.17, 13.83 31, 13.5 31 C 13.08 31, 13 31.17, 13 32 M 13 37 L 13 39 14.5 39 C 15.83 39, 16 38.94, 16 38.5 C 16 38.17, 15.83 38, 15.5 38 C 15.17 38, 15 37.83, 15 37.5 C 15 37.17, 14.83 37, 14.5 37 C 14.08 37, 14 36.83, 14 36 C 14 35.17, 13.92 35, 13.5 35 C 13.04 35, 13 35.17, 13 37" fill="currentColor" fill-rule="evenodd"/>
</svg>