<svg xmlns="http://www.w3.org/2000/svg" viewBox="0 0 48 48" fill="none">
  <path d="M 16 15.5 C 16 15.83, 15.83 16, 15.5 16 C 15.17 16, 15 16.17, 15 16.5 C 15 16.83, 14.83 17, 14.5 17 C 14.17 17, 14 17.17, 14 17.5 C 14 17.83, 13.83 18, 13.5 18 C 13.03 18, 13 18.17, 13 20.5 C 13 22.83, 13.03 23, 13.5 23 C 13.83 23, 14 23.17, 14 23.5 C 14 23.83, 14.17 24, 14.5 24 C 14.92 24, 15 24.17, 15 25 C 15 25.83, 14.92 26, 14.5 26 C 14.06 26, 14 26.17, 14 27.5 C 14 28.83, 14.06 29, 14.5 29 C 14.83 29, 15 28.83, 15 28.5 C 15 28.08, 15.17 28, 16 28 C 16.83 28, 17 27.92, 17 27.5 C 17 27.08, 17.17 27, 18 27 C 18.83 27, 19 26.92, 19 26.5 C 19 26.04, 19.17 26, 21 26 C 22.83 26, 23 25.96, 23 25.5 C 23 25.17, 23.17 25, 23.5 25 C 23.92 25, 24 25.17, 24 26 C 24 26.83, 24.08 27, 24.5 27 C 24.83 27, 25 27.17, 25 27.5 C 25 27.83, 25.17 28, 25.5 28 C 25.83 28, 26 28.17, 26 28.5 C 26 28.96, 26.17 29, 28 29 C 29.83 29, 30 29.04, 30 29.5 C 30 29.92, 30.17 30, 31 30 C 31.83 30, 32 30.08, 32 30.5 C 32 30.92, 32.17 31, 33 31 C 33.83 31, 34 31.08, 34 31.5 C 34 31.83, 34.17 32, 34.5 32 C 34.94 32, 35 31.83, 35 30.5 C 35 29.17, 34.94 29, 34.5 29 C 34.08 29, 34 28.83, 34 28 C 34 27.17, 34.08 27, 34.5 27 C 34.83 27, 35 26.83, 35 26.5 C 35 26.17, 35.17 26, 35.5 26 C 35.97 26, 36 25.83, 36 23.5 C 36 21.17, 35.97 21, 35.5 21 C 35.17 21, 35 20.83, 35 20.5 C 35 20.17, 34.83 20, 34.5 20 C 34.17 20, 34 19.83, 34 19.5 C 34 19.17, 33.83 19, 33.5 19 C 33.17 19, 33 18.83, 33 18.5 C 33 18.03, 32.83 18, 30 18 L 27 18 27 20 C 27 21.83, 26.96 22, 26.5 22 C 26.04 22, 26 21.83, 26 20 C 26 18.17, 25.96 18, 25.5 18 C 25.17 18, 25 17.83, 25 17.5 C 25 17.17, 24.83 17, 24.5 17 C 24.17 17, 24 16.83, 24 16.5 C 24 16.17, 23.83 16, 23.5 16 C 23.17 16, 23 15.83, 23 15.5 C 23 15.02, 22.83 15, 19.5 15 C 16.17 15, 16 15.02, 16 15.5 M 17 19.5 C 17 19.97, 17.17 20, 19.5 20 C 21.83 20, 22 19.97, 22 19.5 C 22 19.03, 21.83 19, 19.5 19 C 17.17 19, 17 19.03, 17 19.5 M 17 21.5 C 17 21.97, 17.17 22, 19.5 22 C 21.83 22, 22 21.97, 22 21.5 C 22 21.03, 21.83 21, 19.5 21 C 17.17 21, 17 21.03, 17 21.5 M 25 23.5 C 25 23.83, 24.83 24, 24.5 24 C 24.17 24, 24 24.17, 24 24.5 C 24 24.83, 24.17 25, 24.5 25 C 24.83 25, 25 24.83, 25 24.5 C 25 24.17, 25.17 24, 25.5 24 C 25.83 24, 26 23.83, 26 23.5 C 26 23.17, 25.83 23, 25.5 23 C 25.17 23, 25 23.17, 25 23.5" fill="currentColor" fill-rule="evenodd"/>
</svg>