<svg xmlns="http://www.w3.org/2000/svg" viewBox="0 0 94 66" fill="none">
  <path d="M 57 17.5 C 57 17.92, 56.83 18, 56 18 C 55.17 18, 55 18.08, 55 18.5 C 55 18.83, 54.83 19, 54.5 19 C 54.17 19, 54 19.17, 54 19.5 C 54 19.92, 53.83 20, 53 20 C 52.17 20, 52 20.08, 52 20.5 C 52 20.92, 51.83 21, 51 21 C 50.17 21, 50 21.08, 50 21.5 C 50 21.83, 49.83 22, 49.5 22 C 49.17 22, 49 22.17, 49 22.5 C 49 22.83, 48.83 23, 48.5 23 C 48.08 23, 48 23.17, 48 24 C 48 24.83, 48.08 25, 48.5 25 C 48.92 25, 49 25.17, 49 26 C 49 26.83, 49.08 27, 49.5 27 C 49.92 27, 50 27.17, 50 28 C 50 28.83, 50.08 29, 50.5 29 C 50.83 29, 51 29.17, 51 29.5 C 51 29.83, 51.17 30, 51.5 30 C 51.92 30, 52 30.17, 52 31 C 52 31.83, 52.08 32, 52.5 32 C 52.92 32, 53 32.17, 53 33 C 53 33.83, 53.08 34, 53.5 34 C 53.83 34, 54 34.17, 54 34.5 C 54 34.83, 54.17 35, 54.5 35 C 54.92 35, 55 35.17, 55 36 C 55 36.83, 55.08 37, 55.5 37 C 55.92 37, 56 37.17, 56 38 C 56 38.83, 56.08 39, 56.5 39 C 56.92 39, 57 39.17, 57 40 C 57 40.83, 57.08 41, 57.5 41 C 57.83 41, 58 41.17, 58 41.5 C 58 41.83, 58.17 42, 58.5 42 C 58.92 42, 59 42.17, 59 43 C 59 43.83, 59.08 44, 59.5 44 C 59.92 44, 60 44.17, 60 45 C 60 45.83, 60.08 46, 60.5 46 C 60.92 46, 61 46.17, 61 47 L 61 48 59 48 L 57 48 57 47 C 57 46.17, 56.92 46, 56.5 46 C 56.08 46, 56 45.83, 56 45 C 56 44.17, 55.92 44, 55.5 44 C 55.08 44, 55 43.83, 55 43 C 55 42.17, 54.92 42, 54.5 42 C 54.17 42, 54 41.83, 54 41.5 C 54 41.17, 53.83 41, 53.5 41 C 53.08 41, 53 40.83, 53 40 C 53 39.17, 52.92 39, 52.5 39 C 52.08 39, 52 38.83, 52 38 C 52 37.17, 51.92 37, 51.5 37 C 51.08 37, 51 36.83, 51 36 C 51 35.17, 50.92 35, 50.5 35 C 50.17 35, 50 34.83, 50 34.5 C 50 34.17, 49.83 34, 49.5 34 C 49.08 34, 49 33.83, 49 33 C 49 32.17, 48.92 32, 48.5 32 C 48.08 32, 48 31.83, 48 31 C 48 30.17, 47.92 30, 47.5 30 C 47.17 30, 47 29.83, 47 29.5 C 47 29.17, 46.83 29, 46.5 29 C 46.17 29, 46 28.83, 46 28.5 C 46 28.17, 45.83 28, 45.5 28 C 45.17 28, 45 28.17, 45 28.5 C 45 28.92, 44.83 29, 44 29 C 43.17 29, 43 29.08, 43 29.5 C 43 29.92, 42.83 30, 42 30 C 41.17 30, 41 30.08, 41 30.5 C 41 30.83, 40.83 31, 40.5 31 C 40.17 31, 40 31.17, 40 31.5 C 40 31.92, 39.83 32, 39 32 C 38.17 32, 38 32.08, 38 32.5 C 38 32.92, 37.83 33, 37 33 L 36 33 36 34.5 C 36 35.83, 36.06 36, 36.5 36 C 36.83 36, 37 36.17, 37 36.5 C 37 36.83, 37.17 37, 37.5 37 C 37.92 37, 38 37.17, 38 38 C 38 38.83, 38.08 39, 38.5 39 C 38.92 39, 39 39.17, 39 40 C 39 40.83, 39.08 41, 39.5 41 C 39.92 41, 40 41.17, 40 42 C 40 42.83, 40.08 43, 40.5 43 C 40.83 43, 41 43.17, 41 43.5 C 41 43.83, 41.17 44, 41.5 44 C 41.92 44, 42 44.17, 42 45 C 42 45.83, 42.08 46, 42.5 46 C 42.92 46, 43 46.17, 43 47 L 43 48 41 48 L 39 48 39 47 C 39 46.17, 38.92 46, 38.5 46 C 38.08 46, 38 45.83, 38 45 C 38 44.17, 37.92 44, 37.5 44 C 37.17 44, 37 43.83, 37 43.5 C 37 43.17, 36.83 43, 36.5 43 C 36.08 43, 36 42.83, 36 42 C 36 41.17, 35.92 41, 35.5 41 C 35.08 41, 35 40.83, 35 40 L 35 39 33.5 39 C 32.17 39, 32 39.06, 32 39.5 C 32 39.92, 31.83 40, 31 40 C 30.17 40, 30 40.08, 30 40.5 C 30 40.92, 29.83 41, 29 41 C 28.17 41, 28 41.08, 28 41.5 C 28 41.83, 27.83 42, 27.5 42 C 27.17 42, 27 42.17, 27 42.5 C 27 42.92, 26.83 43, 26 43 C 25.17 43, 25 43.08, 25 43.5 C 25 43.83, 24.83 44, 24.5 44 C 24.08 44, 24 44.17, 24 45 C 24 45.83, 24.08 46, 24.5 46 C 24.92 46, 25 46.17, 25 47 L 25 48 32 48 L 39 48 39 50 L 39 52 36 52 C 33.17 52, 33 52.03, 33 52.5 C 33 52.83, 32.83 53, 32.5 53 C 32.17 53, 32 53.17, 32 53.5 C 32 53.83, 31.83 54, 31.5 54 C 31.17 54, 31 54.17, 31 54.5 C 31 54.83, 30.83 55, 30.5 55 C 30.03 55, 30 55.17, 30 58 C 30 60.83, 30.03 61, 30.5 61 C 30.92 61, 31 61.17, 31 62 L 31 63 32 63 C 32.83 63, 33 63.08, 33 63.5 C 33 63.98, 33.17 64, 38 64 L 43 64 43 56 C 43 48.17, 43.01 48, 43.5 48 C 43.94 48, 44 48.17, 44 49.5 L 44 51 45.5 51 L 47 51 47 49.5 L 47 48 52 48 L 57 48 57 50 L 57 52 54 52 C 51.17 52, 51 52.03, 51 52.5 C 51 52.83, 50.83 53, 50.5 53 C 50.17 53, 50 53.17, 50 53.5 C 50 53.83, 49.83 54, 49.5 54 C 49.17 54, 49 54.17, 49 54.5 C 49 54.83, 48.83 55, 48.5 55 C 48.03 55, 48 55.17, 48 58 C 48 60.83, 48.03 61, 48.5 61 C 48.83 61, 49 61.17, 49 61.5 C 49 61.83, 49.17 62, 49.5 62 C 49.83 62, 50 62.17, 50 62.5 C 50 62.83, 50.17 63, 50.5 63 C 50.83 63, 51 63.17, 51 63.5 C 51 63.98, 51.17 64, 56 64 L 61 64 61 56 L 61 48 68.5 48 C 75.83 48, 76 47.99, 76 47.5 C 76 47.17, 75.83 47, 75.5 47 C 75.17 47, 75 46.83, 75 46.5 C 75 46.17, 74.83 46, 74.5 46 C 74.08 46, 74 45.83, 74 45 C 74 44.17, 73.92 44, 73.5 44 C 73.08 44, 73 43.83, 73 43 C 73 42.17, 72.92 42, 72.5 42 C 72.08 42, 72 41.83, 72 41 C 72 40.17, 71.92 40, 71.5 40 C 71.17 40, 71 39.83, 71 39.5 C 71 39.17, 70.83 39, 70.5 39 C 70.08 39, 70 38.83, 70 38 C 70 37.17, 69.92 37, 69.5 37 C 69.08 37, 69 36.83, 69 36 C 69 35.17, 68.92 35, 68.5 35 C 68.08 35, 68 34.83, 68 34 C 68 33.17, 67.92 33, 67.5 33 C 67.17 33, 67 32.83, 67 32.5 C 67 32.17, 66.83 32, 66.5 32 C 66.08 32, 66 31.83, 66 31 C 66 30.17, 65.92 30, 65.5 30 C 65.08 30, 65 29.83, 65 29 C 65 28.17, 64.92 28, 64.5 28 C 64.17 28, 64 27.83, 64 27.5 C 64 27.17, 63.83 27, 63.5 27 C 63.08 27, 63 26.83, 63 26 C 63 25.17, 62.92 25, 62.5 25 C 62.08 25, 62 24.83, 62 24 C 62 23.17, 61.92 23, 61.5 23 C 61.08 23, 61 22.83, 61 22 C 61 21.17, 60.92 21, 60.5 21 C 60.17 21, 60 20.83, 60 20.5 C 60 20.17, 59.83 20, 59.5 20 C 59.08 20, 59 19.83, 59 19 C 59 18.17, 58.92 18, 58.5 18 C 58.17 18, 58 17.83, 58 17.5 C 58 17.17, 57.83 17, 57.5 17 C 57.17 17, 57 17.17, 57 17.5 M 19 52.5 C 19 52.83, 18.83 53, 18.5 53 C 18.17 53, 18 53.17, 18 53.5 C 18 53.83, 17.83 54, 17.5 54 C 17.17 54, 17 54.17, 17 54.5 C 17 54.83, 16.83 55, 16.5 55 C 16.03 55, 16 55.17, 16 58 C 16 60.83, 16.03 61, 16.5 61 C 16.83 61, 17 61.17, 17 61.5 C 17 61.83, 17.17 62, 17.5 62 C 17.83 62, 18 62.17, 18 62.5 C 18 62.83, 18.17 63, 18.5 63 C 18.83 63, 19 63.17, 19 63.5 C 19 63.98, 19.17 64, 24 64 L 29 64 29 58 L 29 52 24 52 C 19.17 52, 19 52.02, 19 52.5 M 44 58 L 44 64 45.5 64 L 47 64 47 58 L 47 52 45.5 52 L 44 52 44 58 M 65 52.5 C 65 52.83, 64.83 53, 64.5 53 C 64.17 53, 64 53.17, 64 53.5 C 64 53.83, 63.83 54, 63.5 54 C 63.17 54, 63 54.17, 63 54.5 C 63 54.83, 62.83 55, 62.5 55 C 62.03 55, 62 55.17, 62 58 C 62 60.83, 62.03 61, 62.5 61 C 62.92 61, 63 61.17, 63 62 L 63 63 64 63 C 64.83 63, 65 63.08, 65 63.5 C 65 63.98, 65.17 64, 69.5 64 L 74 64 74 58 L 74 52 69.5 52 C 65.17 52, 65 52.02, 65 52.5 M 78 52.5 C 78 52.92, 77.83 53, 77 53 L 76 53 76 55.5 C 76 57.83, 76.03 58, 76.5 58 C 76.83 58, 77 58.17, 77 58.5 C 77 58.94, 77.17 59, 78.5 59 C 79.83 59, 80 59.06, 80 59.5 C 80 59.94, 80.17 60, 81.5 60 C 82.83 60, 83 60.06, 83 60.5 C 83 60.83, 82.83 61, 82.5 61 C 82.17 61, 82 61.17, 82 61.5 C 82 61.92, 81.83 62, 81 62 C 80.17 62, 80 61.92, 80 61.5 C 80 61.17, 79.83 61, 79.5 61 C 79.17 61, 79 60.83, 79 60.5 C 79 60.04, 78.83 60, 77 60 C 75.17 60, 75 60.04, 75 60.5 C 75 60.83, 75.17 61, 75.5 61 C 75.92 61, 76 61.17, 76 62 L 76 63 77 63 C 77.83 63, 78 63.08, 78 63.5 C 78 63.97, 78.17 64, 81 64 C 83.83 64, 84 63.97, 84 63.5 C 84 63.17, 84.17 63, 84.5 63 C 84.83 63, 85 62.83, 85 62.5 C 85 62.17, 85.17 62, 85.5 62 C 85.96 62, 86 61.83, 86 60 C 86 58.17, 85.96 58, 85.5 58 C 85.17 58, 85 57.83, 85 57.5 C 85 57.06, 84.83 57, 83.5 57 C 82.17 57, 82 56.94, 82 56.5 C 82 56.04, 82.17 56, 84 56 C 85.83 56, 86 55.96, 86 55.5 C 86 55.17, 85.83 55, 85.5 55 C 85.08 55, 85 54.83, 85 54 L 85 53 84 53 C 83.17 53, 83 52.92, 83 52.5 C 83 52.03, 82.83 52, 80.5 52 C 78.17 52, 78 52.03, 78 52.5 M 80 54.5 C 80 54.83, 79.83 55, 79.5 55 C 79.17 55, 79 55.17, 79 55.5 C 79 55.94, 79.17 56, 80.5 56 C 81.83 56, 82 55.94, 82 55.5 C 82 55.17, 81.83 55, 81.5 55 C 81.17 55, 81 54.83, 81 54.5 C 81 54.17, 80.83 54, 80.5 54 C 80.17 54, 80 54.17, 80 54.5 M 20 56 C 20 56.83, 19.92 57, 19.5 57 C 19.06 57, 19 57.17, 19 58.5 C 19 59.83, 19.06 60, 19.5 60 C 19.83 60, 20 60.17, 20 60.5 C 20 60.96, 20.17 61, 22 61 C 23.83 61, 24 60.96, 24 60.5 C 24 60.17, 24.17 60, 24.5 60 C 24.96 60, 25 59.83, 25 58 C 25 56.17, 24.96 56, 24.5 56 C 24.17 56, 24 55.83, 24 55.5 C 24 55.04, 23.83 55, 22 55 L 20 55 20 56 M 34 55.5 C 34 55.83, 33.83 56, 33.5 56 C 33.04 56, 33 56.17, 33 58 C 33 59.83, 33.04 60, 33.5 60 C 33.83 60, 34 60.17, 34 60.5 C 34 60.96, 34.17 61, 36 61 C 37.83 61, 38 60.96, 38 60.5 C 38 60.17, 38.17 60, 38.5 60 C 38.96 60, 39 59.83, 39 58 C 39 56.17, 38.96 56, 38.5 56 C 38.17 56, 38 55.83, 38 55.5 C 38 55.04, 37.83 55, 36 55 C 34.17 55, 34 55.04, 34 55.5 M 52 55.5 C 52 55.83, 51.83 56, 51.5 56 C 51.04 56, 51 56.17, 51 58 C 51 59.83, 51.04 60, 51.5 60 C 51.83 60, 52 60.17, 52 60.5 C 52 60.96, 52.17 61, 54 61 C 55.83 61, 56 60.96, 56 60.5 C 56 60.17, 56.17 60, 56.5 60 C 56.96 60, 57 59.83, 57 58 C 57 56.17, 56.96 56, 56.5 56 C 56.17 56, 56 55.83, 56 55.5 C 56 55.04, 55.83 55, 54 55 C 52.17 55, 52 55.04, 52 55.5 M 66 55.5 C 66 55.83, 65.83 56, 65.5 56 C 65.04 56, 65 56.17, 65 58 C 65 59.83, 65.04 60, 65.5 60 C 65.83 60, 66 60.17, 66 60.5 C 66 60.96, 66.17 61, 68 61 C 69.83 61, 70 60.96, 70 60.5 C 70 60.17, 70.17 60, 70.5 60 C 70.96 60, 71 59.83, 71 58 C 71 56.17, 70.96 56, 70.5 56 C 70.17 56, 70 55.83, 70 55.5 C 70 55.04, 69.83 55, 68 55 C 66.17 55, 66 55.04, 66 55.5" fill="currentColor" fill-rule="evenodd"/>
</svg>