<svg xmlns="http://www.w3.org/2000/svg" viewBox="0 0 45 47" fill="none">
  <path d="M 14 17.5 C 14 17.94, 13.83 18, 12.5 18 C 11.17 18, 11 18.06, 11 18.5 C 11 18.83, 10.83 19, 10.5 19 C 10.17 19, 10 19.17, 10 19.5 C 10 19.83, 9.83 20, 9.5 20 C 9.17 20, 9 20.17, 9 20.5 C 9 20.83, 8.83 21, 8.5 21 C 8.03 21, 8 21.17, 8 23.5 C 8 25.83, 8.03 26, 8.5 26 C 8.92 26, 9 26.17, 9 27 C 9 27.83, 9.08 28, 9.5 28 C 9.83 28, 10 28.17, 10 28.5 C 10 28.83, 10.17 29, 10.5 29 C 10.92 29, 11 29.17, 11 30 C 11 30.83, 11.08 31, 11.5 31 C 11.83 31, 12 31.17, 12 31.5 C 12 31.83, 12.17 32, 12.5 32 C 12.83 32, 13 32.17, 13 32.5 C 13 32.92, 13.17 33, 14 33 C 14.83 33, 15 33.08, 15 33.5 C 15 33.83, 15.17 34, 15.5 34 C 15.83 34, 16 34.17, 16 34.5 C 16 34.92, 16.17 35, 17 35 C 17.83 35, 18 35.08, 18 35.5 C 18 35.92, 18.17 36, 19 36 C 19.83 36, 20 35.92, 20 35.5 C 20 35.17, 20.17 35, 20.5 35 C 20.83 35, 21 34.83, 21 34.5 C 21 34.08, 21.17 34, 22 34 C 22.83 34, 23 33.92, 23 33.5 C 23 33.17, 23.17 33, 23.5 33 C 23.83 33, 24 32.83, 24 32.5 C 24 32.17, 24.17 32, 24.5 32 C 24.83 32, 25 31.83, 25 31.5 C 25 31.17, 25.17 31, 25.5 31 C 25.83 31, 26 30.83, 26 30.5 C 26 30.17, 26.17 30, 26.5 30 C 26.92 30, 27 29.83, 27 29 C 27 28.17, 27.08 28, 27.5 28 C 27.83 28, 28 27.83, 28 27.5 C 28 27.17, 28.17 27, 28.5 27 C 28.97 27, 29 26.83, 29 24 C 29 21.17, 28.97 21, 28.5 21 C 28.08 21, 28 20.83, 28 20 C 28 19.17, 27.92 19, 27.5 19 C 27.17 19, 27 18.83, 27 18.5 C 27 18.06, 26.83 18, 25.5 18 C 24.17 18, 24 17.94, 24 17.5 C 24 17.17, 23.83 17, 23.5 17 C 23.17 17, 23 17.17, 23 17.5 C 23 17.94, 22.83 18, 21.5 18 C 20.17 18, 20 18.06, 20 18.5 C 20 18.92, 19.83 19, 19 19 C 18.17 19, 18 18.92, 18 18.5 C 18 18.06, 17.83 18, 16.5 18 C 15.17 18, 15 17.94, 15 17.5 C 15 17.17, 14.83 17, 14.5 17 C 14.17 17, 14 17.17, 14 17.5" fill="currentColor" fill-rule="evenodd"/>
</svg>