<?xml version="1.0" encoding="UTF-8" standalone="no"?>
<!-- Created with Inkscape (http://www.inkscape.org/) -->

<svg
   version="1.1"
   id="svg1"
   width="1024"
   height="1024"
   viewBox="0 0 1024 1024"
   sodipodi:docname="logo.svg"
   inkscape:version="1.4.3 (0d15f75, 2025-12-25)"
   xmlns:inkscape="http://www.inkscape.org/namespaces/inkscape"
   xmlns:sodipodi="http://sodipodi.sourceforge.net/DTD/sodipodi-0.dtd"
   xmlns="http://www.w3.org/2000/svg"
   xmlns:svg="http://www.w3.org/2000/svg">
  <defs
     id="defs1" />
  <sodipodi:namedview
     id="namedview1"
     pagecolor="#ffffff"
     bordercolor="#000000"
     borderopacity="0.25"
     inkscape:showpageshadow="2"
     inkscape:pageopacity="0.0"
     inkscape:pagecheckerboard="0"
     inkscape:deskcolor="#d1d1d1"
     inkscape:zoom="0.78808594"
     inkscape:cx="511.36555"
     inkscape:cy="512"
     inkscape:window-width="1920"
     inkscape:window-height="1009"
     inkscape:window-x="-8"
     inkscape:window-y="-8"
     inkscape:window-maximized="1"
     inkscape:current-layer="g1" />
  <g
     inkscape:groupmode="layer"
     inkscape:label="Image"
     id="g1">
    <path
       style="fill:#000000"
       d="M 144.50528,690.85918 C 130.88484,668.65971 128.09403,663.49295 129.17654,662.48032 129.90444,661.79941 145.125,652.241 163,641.23941 c 17.875,-11.00158 47.575,-29.36762 66,-40.81342 48.2377,-29.96576 52.30947,-32.43155 53.46169,-32.37534 0.95413,0.0465 18.64417,28.21806 72.28831,115.11969 11.1375,18.04237 20.25,33.26 20.25,33.81698 C 375,717.66458 339.58551,718 268.07874,718 H 161.15748 Z M 430.88672,710.75 c -5.80935,-10.02445 -24.15814,-40.81268 -76.3423,-128.098 -24.61163,-41.1664 -44.36502,-75.19605 -43.89642,-75.62143 0.4686,-0.42539 8.502,-5.49546 17.852,-11.26681 60.86859,-37.57158 87.61203,-54.12916 106.81195,-66.13013 11.99657,-7.4985 22.12157,-13.60282 22.5,-13.56517 0.37843,0.0376 22.86844,37.05015 49.9778,82.25 27.10937,45.19985 67.72187,112.77506 90.25,150.16713 C 620.56789,685.87767 639,716.81517 639,717.23559 639,717.65602 593.11985,718 537.04411,718 H 435.08822 Z M 687.40319,693.25884 C 660.98358,648.71064 593.79762,536.30003 537.2969,442.11202 506.81538,391.29863 482.24137,349.40347 482.68798,349.01165 483.13459,348.61983 506.45,334.21225 534.5,316.9948 562.55,299.77735 594.82693,279.91002 606.2265,272.84517 617.62608,265.78033 627.37579,260 627.89252,260 c 0.51673,0 20.27614,32.2875 43.9098,71.75 42.6055,71.14089 50.77633,84.84505 86.30433,144.75 10.11188,17.05 46.60443,77.98806 81.09454,135.41791 34.49011,57.42986 62.48301,104.78404 62.20645,105.23152 -0.27656,0.44749 -45.23693,0.8259 -99.91194,0.84093 l -99.40912,0.0273 z"
       id="path1" />
  </g>
</svg>
